<svg id="Layer_1" data-name="Layer 1" xmlns="http://www.w3.org/2000/svg" width="16" height="16" viewBox="0 0 16 16">
  <title>dm</title>
  <g>
    <path d="M1.74,0H5.38C8.06,0,9.67,1.4,9.67,3.63c0,3.07-2.2,5.07-5.42,5.07H0ZM4.31,7.05A3.13,3.13,0,0,0,7.63,3.74c0-1.29-.83-2.09-2.47-2.09H3.43L2.35,7.05Z" transform="translate(0)" fill="#128ab1"/>
    <path d="M16,7.16,14.24,16H12.33l1-5.25L10,15.07H9.08L7.26,10.7,6.2,16H4.28L6.05,7.16H7.72l2.21,5.51,4.31-5.51Z" transform="translate(0)" fill="#128ab1"/>
  </g>
</svg>
